<svg xmlns="http://www.w3.org/2000/svg" width="24" height="24" viewBox="0 0 24 24">
  <path d="M12.075.462C5.53.462.23 5.762.23 12.306c0 5.24 3.39 9.667 8.098 11.237.592.103.814-.252.814-.563 0-.281-.014-1.214-.014-2.206-2.976.548-3.746-.725-3.983-1.392-.133-.34-.71-1.391-1.214-1.673-.415-.222-1.007-.77-.015-.784.933-.015 1.6.858 1.821 1.214 1.066 1.791 2.769 1.288 3.45.977.103-.77.414-1.288.755-1.584-2.635-.296-5.39-1.318-5.39-5.848 0-1.288.46-2.354 1.215-3.183-.119-.296-.533-1.51.118-3.139 0 0 .992-.31 3.257 1.214a10.99 10.99 0 0 1 2.961-.4c1.007 0 2.014.134 2.961.4 2.266-1.54 3.258-1.214 3.258-1.214.651 1.629.236 2.843.118 3.139.755.829 1.214 1.88 1.214 3.183 0 4.545-2.769 5.552-5.404 5.848.43.37.8 1.08.8 2.191 0 1.584-.015 2.857-.015 3.257 0 .311.222.681.814.563a11.851 11.851 0 0 0 8.069-11.237c0-6.544-5.3-11.844-11.844-11.844Z"/>
</svg>
