<svg xmlns="http://www.w3.org/2000/svg" width="400" height="300" viewBox="0 0 400 300">
  <defs>
    <clipPath id="a" clipPathUnits="userSpaceOnUse">
      <path d="M-378.4 411.4h768v-1024h-768Z"/>
    </clipPath>
    <clipPath id="b" clipPathUnits="userSpaceOnUse">
      <path d="M-384.6 409.3h768v-1024h-768Z"/>
    </clipPath>
    <clipPath id="c" clipPathUnits="userSpaceOnUse">
      <path d="M-307.2 487h768V-537h-768Z"/>
    </clipPath>
    <clipPath id="d" clipPathUnits="userSpaceOnUse">
      <path d="M-357.5 492.3h768v-1024h-768Z"/>
    </clipPath>
    <clipPath id="e" clipPathUnits="userSpaceOnUse">
      <path d="M-254.6 511.6h768v-1024h-768Z"/>
    </clipPath>
    <clipPath id="f" clipPathUnits="userSpaceOnUse">
      <path d="M-293.9 507h768V-517h-768Z"/>
    </clipPath>
    <clipPath id="g" clipPathUnits="userSpaceOnUse">
      <path d="M-347.4 501.5h768v-1024h-768Z"/>
    </clipPath>
    <clipPath id="h" clipPathUnits="userSpaceOnUse">
      <path d="M-485.1 531.3h768v-1024h-768Z"/>
    </clipPath>
    <clipPath id="i" clipPathUnits="userSpaceOnUse">
      <path d="M-359.6 560.5h768v-1024h-768Z"/>
    </clipPath>
    <clipPath id="j" clipPathUnits="userSpaceOnUse">
      <path d="M-288.7 557.7h768v-1024h-768Z"/>
    </clipPath>
    <clipPath id="k" clipPathUnits="userSpaceOnUse">
      <path d="M-328.6 596.4h768v-1024h-768Z"/>
    </clipPath>
  </defs>
  <g transform="translate(-4.849 -63.34)">
    <path d="M0 0c2.7 2.2 5.5 5.5 9.4 4.8 5-1.1 6.8-6.5 9.2-10.4C20.8-9 22-13.3 25.2-16c7.4-1.6 14.1 3.4 21.4 3.1 2.1-.2 4.6.3 6-1.6 2.7-5.5.3-11.5-.6-17.1-.2-3.8-.9-9.2 3.4-11.1 5.8-2.7 12.6-2.7 18.4-5.7 2.1-2 2.6-5.3 2.1-8.1-1.9-5.9-6.6-10.4-9-16.1 1.8-5.7 7.2-10.3 6.5-16.7-.5-5.5-5.6-8.6-9.6-11.5 5.2-6.8 10.3-14.7 18.8-17.7 2.9-1.1 6.8-1.7 9 .9 13.6 11.7 20.3 29.4 34.2 40.8 2.6 1.8 6.2 3.8 9.1 1.7 5.1-5.4-.1-14.1 4.6-19.6 3.6-3 8.7-3.6 12.2-6.8 1.8-1.4 1.3-4 1.1-5.9-2.6-6.4-9.6-9.6-12.7-15.6-.9-6.4 4.8-12 2.7-18.5-2.1-6.1-10.6-6.4-12.9-12.4-.5-6.2 3.8-12.2 1.6-18.4-2.2-3.8-6.9-5.1-10.9-5.5-3.3-.4-7.1.5-9.9-1.8-4-4.1-2.8-11-7.6-14.4-2.5-1.6-6-2.7-8.6-.7-4.4 3.1-6 8.6-7.7 13.4-1.3 5-1.8 10.2-4.9 14.5-5.4-.5-9.7-4.3-14.5-6.5 2.4-2.3 5.1-5.4 4.3-9-1.4-2.4-4.1-3.6-6.2-5.3-2-1.8.4-4.6 0-6.9-.6-2.4-1.3-5-3.5-6.4-3.5-.6-7.2-.3-10.5-1.7-4.6-1.6-5.2-7.5-9.3-9.7-2.6-1.5-5.8-.3-8.1 1.2-1.6 2-3 4.3-4.7 6.4-3.2 0-6.4-.6-9.6 0-1.4 1.3-2.4 3.2-2.4 5.1 1 4 3.2 7.7 4.4 11.7-7.2-2.4-14.5-5.2-22.2-5-4.7-.3-9.9 1.3-13.9-2.1.8-3.2 2.3-6.8.2-9.8-1.1-2.7-4.6-2.6-7-1.8-2.2 1.6-4.4 5.1-7.6 3.5-2.4-2.4-4.5-6.8-8.5-6.3-5.7 1.3-4.5 8.1-7.3 12-4 .1-9.4-3.2-12.1 1-.5 4.5 2.7 8.1 4.4 11.9-3.3 1.3-6.4 3.1-9.1 5.6-18.1-5.9-37.5-10-56.6-7.3-8.2 2.1-16.9 5-22.4 11.7-3.7 4.5-4.7 11.3-1.7 16.4 3.9 7.2 11.1 11.8 18 15.7-1.5 5-1.6 10.7 2.1 14.8-5.3 6.3-7.3 14.9-6.1 23 1.7 10.6 11.1 19.6 21.9 20.5.4 4.8 2.3 10 6.8 12.4 5.2 3.4 11.6 4.1 17.6 4.5 8.3 12 21.5 19.7 35.1 24 5.6 1.3 8.9 6.3 13.1 9.7C-21.4-23.3-12.1-10.2 0 0" clip-path="url(#a)" style="fill:#020001;fill-opacity:1;fill-rule:nonzero;stroke:none" transform="matrix(1.33333 0 0 -1.33333 199.642 74.292)"/>
    <path d="M0 0c1.301 1.2 3.601 1.4 4.801-.1 5.5-4.8 6.399-12.8 10.8-18.4 2.2-2.2 5.599-2.7 8.5-1.9 5.599.8 10.7 3.6 16.399 4.3 2.2.5 3.801-1.3 5.601-2.3-.101-4.9-1.101-9.8-2.5-14.5C42.2-37.5 42.5-43.4 47-46.2c6.301-3.1 13.601-3.4 19.4-7.5 3.1-3 0-7.3-1.799-10.1-2.3-4.1-7.101-7.6-6.3-12.7 2.399-4.6 6.599-8.7 6.3-14.2-.201-4.9-4.701-7.6-8.3-10.2C48-91.3 43.7-79.1 36.2-68.9c-5 7.1-12 12.4-19.3 16.7-3.4 2.1-7.2 3.5-11.099 4 1.8-2.8 5.3-3.5 8-5 12.899-6.1 22.8-17.6 28.5-30.5C48.9-94.8 55.5-106.2 64.7-115.4c3.8-3.5 7.7-7.201 12.901-8.3 3.299-1.1 7.099-.3 9.599 2.2 11.2 9.8 17.8 23.5 27.401 34.6C118-83.1 122-79 127.4-78.4c3.901-5.7 0-12.7 2.6-18.7 3.2-4.9 10.2-4.8 14-9.1.601-3.3-1.5-6.2-3.899-8.1-3.401-3-7.101-6.2-8.601-10.6-1.399-5.6 2.5-10.5 3.2-15.8-.3-4.401-4.8-6.3-8-8.3-3.899-2.3-6.899-7-5.599-11.601 1.299-4 3.2-8.399 1.799-12.599-3.599-5.401-10.799-4-16.299-5-4.3-.5-5.901-5.1-7.101-8.6-1.199-3.801-3.5-8.2-7.899-8.5-3 .5-4.601 3.5-6.101 5.699C81.2-182.4 83.2-172 76.2-166.4c-6.8.7-11.599-5.9-18-7.201-7.7.101-7.899 12.401-16.3 11.101 3.201-2.7 6.401-5.5 8.5-9.2 1.401-2.901 4.8-3.3 7.3-4.8 2.7-1.3 4.3-3.9 5.8-6.3-2.1-2.301-4.8-4-6.899-6.301-1.3-3.399.599-7.399-1.101-10.699-3.899-2.5-9.3-1-13.199-3.801-3.101-2.299-4.101-6.5-7.2-8.899-6.401-2-7.601 6.6-12.701 8.2-2.4.199-4.7-.4-7-.7-.799 1.6-2.299 3.3-1.099 5.1 3 6.9 5.399 16.1-.301 22.4-.199-3.2 1-6.101 1.601-9.2-11.201-6-25-7.6-37.201-4-7.4 3-14.2 7.2-21.2 10.9-3.2-1.4-6.3-3.5-9.8-4.1-4.2-.1-8.6.7-12.1 3.299 8.301 4.5 17.2 7.701 26.2 10.701 5.2 1.5 10.4 3.9 16 3.6 3.2 0 6.5.699 9.7.3 4.2-.9 5.5-6 9.5-7.2-1.8 3.5-4.2 7.099-8 8.7-3.599.7-7.5-.101-11.099 1.1-3.901.7-6.801 3.6-10.201 5.5 1-2.6 3.1-4.4 5-6.3-10.9-2.7-21.2-7.1-31.799-10.7-19.401-8.201-40.5-13.701-61.601-11.201-9.1 1.401-19.2 4.301-24.399 12.601-3.401 4.6-2 11.1 1.299 15.3 4.3 5.9 11 9.099 16.6 13.599-.6 2.601-1.5 5.201-1.6 7.801.6 1.8 1.5 3.4 2.4 5.1 5-3.5 10.801-6.5 17.1-6.401 4.3-.399 8.4 1.301 12.1 3.201 5.101-6.201 12.8-10.4 20.9-10.4 9-.5 17.1 4.199 23.9 9.699 6.4-5.5 14.6-9.399 23.1-9.399 13.1.399 26 10.2 28.201 23.399C-.2-113.4-2.6-104.5-8.5-98.6c-7.899 8.7-21.1 11.5-32 7.8-4.2-1.4-7.8-4.3-11.2-7-4 4-8.9 7.5-14.5 8.6-8.6 2.1-17.6-.8-24.6-5.8-5.2 4.7-11.5 8.2-18.5 9.2-.2 3.9 1.6 7.8 4.901 9.9 4.599 3 10.299 3.5 15.699 4.3 1.6 0 2.6 1.4 3.6 2.4 5.701 6.3 11.9 12.5 19.701 16.3 8.699 4.2 18.099 7 27.599 8.6 1.5.2 2.8.9 4 1.5-3 .6-6.099.4-9.2.4C-37.899-36.5-31.3-32-26.3-26-17.899-17-10-7.4 0 0" clip-path="url(#b)" style="fill:#fe8d39;fill-opacity:1;fill-rule:nonzero;stroke:none" transform="matrix(1.33333 0 0 -1.33333 207.908 71.491)"/>
    <path d="M0 0c2.8 4 8.3 4.1 12.8 4.3 7.3.4 14.6-1.8 21-5.3 1.2-.6 1.9-1.8 2.7-2.8C29.2-.9 21.9 3 13.8 2.8 9 3 4.6.8 0 0" clip-path="url(#c)" style="fill:#020001;fill-opacity:1;fill-rule:nonzero;stroke:none" transform="matrix(1.33333 0 0 -1.33333 104.71 175.092)"/>
    <path d="M0 0c5.5 3.6 12.4 2.6 18.4 1.2C24.1 0 29.3-2.7 33.9-6.3c1.4-.8 1.5-2.4 2-3.8C29.6-5.6 23.2-.7 15.3.3 10.2 1.6 5.1-.4 0 0" clip-path="url(#d)" style="fill:#020001;fill-opacity:1;fill-rule:nonzero;stroke:none" transform="matrix(1.33333 0 0 -1.33333 171.776 182.158)"/>
    <path d="M0 0c3 7.4 10.1 13.7 18.4 13.5C24 14 30 12.4 34.1 8.3c1.1-1 3.2-2.5 1.8-4.1-8.7-9.1-10.6-23.7-4.5-34.7-5-2.9-11.1-3.3-16.7-2.4C6.5-30.4-.5-23.2-1.5-14.4-1.8-9.6-2.2-4.4 0 0" clip-path="url(#e)" style="fill:#fefdb6;fill-opacity:1;fill-rule:nonzero;stroke:none" transform="matrix(1.33333 0 0 -1.33333 34.576 207.892)"/>
    <path d="M0 0c5.5 4.8 12.8 7.7 20.1 7.3C26.7 6.5 33 3.1 37.4-2c-8.2-8.9-8.6-23.6-1.3-33.2-7.8-11.6-25.8-14-36.6-5.4C-12.6-30.7-12.1-9.6 0 0" clip-path="url(#f)" style="fill:#fefdb6;fill-opacity:1;fill-rule:nonzero;stroke:none" transform="matrix(1.33333 0 0 -1.33333 86.976 201.758)"/>
    <path d="M0 0c12.8 3.1 27.8-3.8 32.5-16.4 3-8.2 1.1-17.8-4.6-24.4-5.2-6.1-13.3-9.6-21.3-9.4-13.7-.5-27.8 11.5-26.9 25.7C-20.3-12.9-11.1-2.6 0 0" clip-path="url(#g)" style="fill:#fefdb6;fill-opacity:1;fill-rule:nonzero;stroke:none" transform="matrix(1.33333 0 0 -1.33333 158.309 194.425)"/>
    <path d="M0 0c2.2-.601 2.2-3.101 2.801-5 1.599-8.601.5-18-4-25.601-2.2-3.5-5.2-6.599-9.101-8.199 2.7 4 6.5 7.3 8.5 11.8C1.301-20.4 2.801-12.7 1-5.5.601-3.7.2-1.9 0 0" clip-path="url(#h)" style="fill:#020001;fill-opacity:1;fill-rule:nonzero;stroke:none" transform="matrix(1.33333 0 0 -1.33333 341.908 234.158)"/>
    <path d="M0 0c6.7.8 12.1 4.9 17.9 7.8-1.3-3.5-5.1-5-8.2-6.5C3-2.1-5-3.2-12.2-1.1c-1.4.2-2.3 1.3-3.3 2.1C-10.3.4-5.2-1.2 0 0" clip-path="url(#i)" style="fill:#020001;fill-opacity:1;fill-rule:nonzero;stroke:none" transform="matrix(1.33333 0 0 -1.33333 174.576 273.092)"/>
    <path d="M0 0c4.7-1.3 8.8-4.1 13.7-4.8 5.7-1.3 11.4.8 17.1 1.5-4.8-4-11.6-3.9-17.5-3.3C8.5-5.6 3-4.399 0 0" clip-path="url(#j)" style="fill:#020001;fill-opacity:1;fill-rule:nonzero;stroke:none" transform="matrix(1.33333 0 0 -1.33333 80.043 269.359)"/>
    <path d="M0 0c4.7.7 9.2 2.5 13.4 4.601C16.9 2.7 20.3.7 23.7-1.3c4.1-2.2 8.5-3.7 12.7-5.8-4-1.7-8.6-2.099-12.4-4.5 3.2-.7 6.5.1 9.7.5.6-2.299.7-4.7.6-7.099-.6-.5-1.6-1.5-2.2-2-4.1.899-6.7 6.5-11.4 4.599-3.1-2.299-4.5-7.7-9.3-6.5-2 3.701-2.2 8.5-5.2 11.6-3.7 1.301-7.4-1.899-11.1-.3.7 4 2.7 7.5 4.9 10.8" clip-path="url(#k)" style="fill:#fe8d39;fill-opacity:1;fill-rule:nonzero;stroke:none" transform="matrix(1.33333 0 0 -1.33333 133.242 320.959)"/>
    <circle cx="51.759" cy="223.446" r="5.078" style="display:inline;fill:#020001;fill-opacity:1;stroke-width:1.88976;paint-order:stroke fill markers"/>
    <circle cx="106.188" cy="230.999" r="5.078" style="display:inline;fill:#020001;fill-opacity:1;stroke-width:1.88976;paint-order:stroke fill markers"/>
    <circle cx="177.023" cy="227.829" r="5.078" style="display:inline;fill:#020001;fill-opacity:1;stroke-width:1.88976;paint-order:stroke fill markers"/>
  </g>
</svg>
