<svg xmlns="http://www.w3.org/2000/svg" width="50" height="30" viewBox="0 0 50 30">
  <path d="m13.628 9.898.153.054h.01l.08-.495-.099-.027c-.045-.018-.09-.027-.126-.045-.054-.018-.117-.036-.17-.054-.063-.027-.126-.054-.19-.072-.134-.054-.269-.099-.386-.161h-.009l-.153-.072c-.045-.018-.09-.036-.125-.063l-.28-.153c-.053-.027-.098-.063-.161-.099a.67.67 0 0 0-.108-.063l-.054-.036c-.027-.018-.054-.027-.072-.045l-.26-.189a.36.36 0 0 1-.108-.09l-.243-.206-.09-.09c-.126-.117-.243-.225-.35-.35a6.713 6.713 0 0 1-.765-.999s0-.009-.009-.009c-.045-.063-.08-.134-.125-.215-.027-.045-.054-.1-.081-.144l-.108-.216-.01-.009-.44.216.01.009c.035.08.08.162.116.234 0 0 0 .009.01.009l.08.134c.045.081.09.162.144.243a6.977 6.977 0 0 0 1.186 1.447l.1.09.008.01.243.206.144.117.26.189s.01 0 .01.009c.027.018.063.036.09.063l.053.036c.036.018.063.045.1.063.053.035.116.08.188.116l.279.153c.054.027.108.054.17.081l.144.063c.144.072.288.126.432.18.063.027.126.045.189.072.009 0 .009 0 .018.009.063.018.126.045.188.063.036.009.072.027.117.036z"/>
  <path d="m13.502 11.03.126.036c.01-.054.01-.099.018-.153.018-.116.036-.224.045-.341l-.072-.018-.17-.054c-.045-.018-.09-.027-.126-.045-.072-.027-.144-.045-.225-.072-.063-.027-.135-.054-.198-.08a4.629 4.629 0 0 1-.485-.208l-.18-.08c-.054-.027-.108-.045-.153-.072l-.332-.18c-.063-.036-.126-.081-.198-.126a.82.82 0 0 0-.117-.072l-.063-.036c-.036-.018-.063-.045-.09-.054l-.306-.225a.884.884 0 0 1-.134-.107l-.288-.243-.081-.081a6.786 6.786 0 0 1-.44-.44 6.992 6.992 0 0 1-.89-1.178c-.054-.081-.1-.171-.153-.261a1.353 1.353 0 0 0-.09-.153l-.135-.27-.081-.161-.44.224c.027.054.053.1.08.153.045.1.1.198.144.297v.009c.027.045.054.099.081.144.054.099.108.198.162.278a8.238 8.238 0 0 0 1.411 1.708l.09.081.01.01.287.242c.045.045.099.081.162.135l.314.234c.036.027.072.045.108.072l.054.036c.036.027.072.044.108.071.072.045.144.09.225.135l.323.18c.054.036.117.063.19.099l.161.08c.17.09.35.154.521.226.063.027.135.054.198.08 0 0 .01 0 .01.01l.242.08c.045.01.08.027.126.036l.18.054c.063-.009.063-.009.071 0z"/>
  <path d="m13.565 11.678-.233-.054-.324-.1c-.09-.026-.18-.053-.27-.09-.063-.026-.134-.053-.197-.08-.198-.08-.387-.153-.576-.243l-.198-.09a1.119 1.119 0 0 1-.18-.09l-.377-.206a3.28 3.28 0 0 1-.234-.144c-.045-.027-.08-.054-.116-.081l-.063-.045c-.036-.027-.081-.045-.108-.072l-.35-.26a1.142 1.142 0 0 1-.154-.126l-.323-.28-.063-.053c-.189-.18-.369-.35-.54-.54a9.005 9.005 0 0 1-1.024-1.339c-.063-.099-.126-.198-.18-.315-.027-.054-.063-.107-.09-.161a10.147 10.147 0 0 1-.162-.315l-.44.216c.053.117.107.224.17.341.027.054.063.108.09.162.063.108.126.225.198.333a9.42 9.42 0 0 0 1.07 1.411c.18.207.377.387.566.566l.063.063.01.01.332.278c.054.045.117.09.188.144l.36.26c.045.028.081.055.126.082l.063.044a.82.82 0 0 0 .117.072c.08.054.17.108.26.162l.378.207c.063.036.135.072.216.108l.188.09c.207.099.414.18.62.26.064.027.136.054.199.081h.009c.098.036.197.063.287.09l.333.1h.018l.314.08c-.009-.144.01-.306.027-.476zM18.537 5.798l-.01-.018c-.026-.072-.053-.134-.071-.206-.018-.063-.045-.117-.063-.18a6.115 6.115 0 0 1-.566.027 8.951 8.951 0 0 1-1.682-.09 8.062 8.062 0 0 1-1.573-.396 6.409 6.409 0 0 1-1.402-.746l-.26-.18c-.019-.009-.028-.018-.046-.036l-.251-.206-.315.386.243.198a.391.391 0 0 0 .063.054s.009 0 .009.009l.26.189c.486.332.998.602 1.51.8a7.725 7.725 0 0 0 1.673.422c.422.063.88.1 1.393.1.117 0 .243 0 .369-.01.233 0 .458-.018.683-.036h.054c.009-.027-.01-.054-.018-.08z"/>
  <path d="M18.815 6.482h-.018c-.072.009-.134.009-.206.018-.243.018-.486.035-.738.044a10.216 10.216 0 0 1-1.87-.098 9.02 9.02 0 0 1-1.806-.459 7.946 7.946 0 0 1-1.636-.863l-.297-.207c-.018-.018-.036-.027-.054-.045l-.414-.341-.314.386.413.342c.027.018.045.036.072.054 0 0 .01 0 .01.009l.305.216c.557.386 1.15.692 1.744.926.593.224 1.24.386 1.906.485.476.072.989.108 1.546.108.135 0 .27 0 .404-.01.261 0 .513-.026.765-.044.072-.009.134-.009.206-.018h.01c.053-.009.116-.018.17-.018a7.819 7.819 0 0 0-.198-.485z"/>
  <path d="M19.3 7.542c-.062.01-.125.018-.188.027l-.207.027-.197.018c-.27.018-.54.045-.819.045a12.446 12.446 0 0 1-2.067-.108 9.987 9.987 0 0 1-2.04-.521 8.496 8.496 0 0 1-1.87-.989l-.333-.234c-.018-.018-.045-.036-.063-.054l-.243-.197-.315.386.243.198a.582.582 0 0 1 .081.072l.35.243c.63.431 1.304.782 1.978 1.042.675.252 1.394.44 2.14.549.53.08 1.097.126 1.708.126.144 0 .288 0 .44-.01.288 0 .576-.026.845-.044l.207-.018h.01l.206-.027c.126-.018.243-.027.369-.045a8.263 8.263 0 0 0-.234-.486zM49.371 18.86l-.593-.135-.378-.116-.08-.027c-.036-.01-.072-.018-.108-.036l-.369-.153c-.018-.01-.045-.018-.063-.027-.036-.018-.072-.027-.099-.045 0 0-.009 0-.009-.009l-.36-.18s-.008 0-.008-.009a2.086 2.086 0 0 1-.126-.072l-.35-.215-.378-.28-.35-.314-.262-.278-.009-.01c-.036-.026-.063-.071-.099-.116l-.125-.153c-.018-.018-.036-.045-.054-.063-.018-.027-.045-.045-.054-.072 0 0 0-.009-.01-.009l-.107-.162a4.814 4.814 0 0 1-.63-1.321l-.08-.306c-.027.009-.045.018-.072.027-.126.045-.26.08-.396.126l.072.288v.009c.153.512.396 1.006.692 1.456l.108.162c.027.045.063.09.09.126.01.018.027.027.045.053l.126.162c.036.054.08.108.144.162l.27.279.017.018.369.323.018.018.396.297c.009.009.009.009.018.009l.35.216a.85.85 0 0 0 .18.099l.35.18c.054.026.108.053.153.071.018.01.036.01.054.018l.378.153h.009c.045.018.09.027.135.045.027.01.045.018.072.018l.386.126c.01 0 .01 0 .018.009l.611.144h.018l.648.099.072-.486z"/>
  <path d="m49.165 19.957-.684-.162-.44-.135-.081-.027c-.045-.018-.09-.027-.126-.036l-.431-.18c-.027-.008-.045-.017-.072-.026-.045-.018-.09-.036-.117-.054h-.01l-.422-.216c-.054-.027-.108-.054-.162-.09l-.404-.252-.459-.341-.09-.072a6.33 6.33 0 0 1-1.977-2.967c-.018-.054-.027-.117-.045-.17-.01-.036-.018-.072-.027-.117-.036.009-.081.027-.117.036-.117.036-.234.08-.35.116a.262.262 0 0 1 .017.081c.018.054.027.117.045.171v.01a6.859 6.859 0 0 0 2.13 3.2l.09.08c.01 0 .01.01.019.01l.476.35c.01 0 .01.009.018.009l.414.26c.063.046.135.082.207.118l.413.206c.063.036.117.054.17.081a.438.438 0 0 0 .064.027l.44.18c.054.018.108.036.153.054l.081.027.45.144c.008 0 .008 0 .017.009l.702.162h.018l.53.08.072-.485z"/>
  <path d="m48.949 21.054-.764-.18-.495-.153-.09-.027a1.387 1.387 0 0 0-.152-.045l-.495-.197a.32.32 0 0 1-.08-.036.797.797 0 0 1-.154-.072l-.485-.243c-.063-.027-.126-.072-.198-.108l-.467-.288-.53-.395-.1-.09a7.456 7.456 0 0 1-2.328-3.497l-.027-.108c-.009-.045-.027-.099-.036-.144-.009 0-.027.01-.036.01-.135.044-.279.09-.431.143l.027.117.027.117v.009a7.918 7.918 0 0 0 2.48 3.73l.1.09s.009.01.018.01l.548.404c.009 0 .009.009.018.009l.476.297c.072.045.153.098.234.134l.477.243c.072.036.134.063.197.09.027.009.045.018.072.027l.504.207c.063.018.117.036.18.063.026.009.053.018.09.027l.503.161c.009 0 .009 0 .018.01l.782.18h.018l.485.071.072-.485zM34.412 13.413a7.541 7.541 0 0 1-1.114-.342c-.01.072-.027.144-.045.234l-.018.09a1.198 1.198 0 0 1-.045.17c.368.144.746.261 1.124.342.45.099.926.153 1.402.17.063-.152.117-.314.18-.485a8.585 8.585 0 0 1-1.484-.18zM47.16 10.913l-.369.054c-.054.01-.117.018-.18.027a5.087 5.087 0 0 0-.36.072c-1.23.252-2.354.63-3.451.99l-.369.125c-.908.306-1.77.593-2.634.827-.027.081-.045.162-.072.234-.027.108-.063.216-.09.314.971-.251 1.942-.575 2.958-.917l.36-.116c1.078-.36 2.193-.729 3.398-.98.108-.027.225-.045.341-.063l.171-.027c.117-.018.234-.036.342-.045zM47.474 11.992c-.053.01-.116.018-.17.027-.108.018-.216.027-.333.045-.054.01-.117.018-.17.027a4.107 4.107 0 0 0-.324.063c-1.16.234-2.302.62-3.398.98l-.333.108c-1.06.36-2.167.728-3.272.998-.018 0-.027.009-.045.009-.045.152-.1.296-.144.45a.438.438 0 0 1-.036.098c.108-.027.225-.054.342-.08 1.123-.28 2.229-.648 3.308-1.008l.332-.108c1.088-.36 2.212-.737 3.345-.97a20.544 20.544 0 0 1 .476-.081c.099-.018.207-.027.306-.045.054-.01.116-.018.17-.027zM34.17 14.5A9.158 9.158 0 0 1 33 14.15a4.932 4.932 0 0 1-.189.458c.414.162.836.288 1.25.378.368.08.755.135 1.142.17a.281.281 0 0 0 .045-.09c.062-.116.125-.242.197-.386a8.558 8.558 0 0 1-1.276-.18zM47.34 13.134l-.198.027-.162.027c-.09.018-.189.036-.288.054-1.096.225-2.193.593-3.362.98l-.278.09c-1.052.36-2.158.728-3.309 1.015-.251.063-.503.117-.746.171-.036.09-.08.189-.117.297l-.009.009c-.036.08-.072.17-.108.243.351-.063.72-.144 1.097-.243 1.169-.288 2.284-.656 3.353-1.016l.28-.09c1.15-.386 2.237-.746 3.307-.962.09-.018.171-.036.27-.054l.162-.027.17-.027zM33.936 15.588a8.844 8.844 0 0 1-1.393-.422c-.081.143-.171.287-.261.431.503.198 1.025.36 1.546.477.225.044.45.09.683.125.018-.018.036-.045.054-.063.027-.035.063-.08.1-.134l.008-.01.171-.242s0-.01.009-.01a9.75 9.75 0 0 1-.917-.152zM41.317 8.45l.098-.027c.28-.377.576-.755.908-1.132.135-.162.288-.315.432-.468l.054-.054-.36-.341-.054.054c-.153.152-.305.323-.45.485a13.442 13.442 0 0 0-1.24 1.6c.216-.036.414-.072.612-.117zM39.07 12.217c0 .009-.01.018-.01.027-.072.234-.135.476-.207.72-.08.269-.161.547-.242.835a15.54 15.54 0 0 1-.567 1.61 11.05 11.05 0 0 1-.809 1.555 9.929 9.929 0 0 1-.54.764l.513.134c.153-.206.306-.422.44-.629.324-.503.612-1.052.855-1.627.207-.476.386-1.007.584-1.654.09-.288.17-.566.243-.845.072-.243.135-.477.207-.71.018-.054.027-.108.045-.153-.171-.018-.342-.018-.513-.027zM39.923 8.64h.01c.179-.298.368-.585.557-.846.36-.494.674-.88.997-1.24.144-.171.315-.342.468-.504.063-.072.135-.135.198-.207l-.36-.341a4.2 4.2 0 0 1-.198.206c-.162.171-.332.342-.485.522a15.8 15.8 0 0 0-1.025 1.276c-.252.351-.494.738-.728 1.133.189.01.377.01.566 0zM37.954 12.11h-.018c-.054.179-.107.359-.161.547-.225.774-.45 1.574-.765 2.32-.206.494-.449.962-.728 1.393-.242.378-.53.755-.845 1.133.19.027.378.054.576.09.251-.315.485-.638.692-.953a9.4 9.4 0 0 0 .764-1.465c.333-.774.566-1.583.791-2.374.063-.206.117-.413.18-.62-.162-.027-.324-.045-.486-.072zM38.494 8.567l.189.027c.287-.512.593-.998.908-1.438.377-.513.728-.944 1.07-1.33.161-.19.332-.37.503-.55l.018-.017-.36-.342-.018.018c-.17.18-.35.369-.521.567-.35.386-.71.836-1.097 1.366-.333.459-.647.962-.944 1.501-.027.045-.054.1-.08.153.107.01.215.027.332.045z"/>
  <path d="M36.849 11.884c-.045.153-.09.297-.126.45-.225.79-.44 1.528-.728 2.202-.19.44-.396.845-.639 1.232a9.164 9.164 0 0 1-.836 1.106c-.036.045-.08.08-.117.125-.062.063-.116.135-.18.198l-.206.207h.521c.054 0 .1 0 .153.009.027-.027.054-.054.081-.09.036-.045.072-.08.117-.126.342-.386.638-.782.89-1.177.26-.405.485-.836.683-1.304.297-.701.513-1.456.746-2.256.045-.153.09-.315.135-.477-.17-.027-.333-.063-.494-.099zM44.598 7.138c-.045.036-.09.08-.126.117-.063.054-.126.117-.189.161l-.243.198-.08.063a7.196 7.196 0 0 1-4.01 1.394 8.277 8.277 0 0 1-2.877-.414c-.143.126-.287.243-.44.369.333.125.683.233 1.034.314.665.153 1.33.234 1.968.234.117 0 .225 0 .342-.009a7.65 7.65 0 0 0 4.288-1.492l.09-.063.01-.01.25-.206c.073-.054.136-.117.208-.18.044-.036.08-.072.125-.108z"/>
  <path d="m45.245 8.046-.027.027c-.08.072-.153.144-.234.206l-.287.234-.1.072a8.33 8.33 0 0 1-4.629 1.618 9.116 9.116 0 0 1-2.481-.242 8.329 8.329 0 0 1-1.474-.486l-.486.324c.585.27 1.205.485 1.852.638.755.17 1.501.26 2.23.26.125 0 .251 0 .377-.008a8.843 8.843 0 0 0 4.908-1.708l.1-.072.008-.01.288-.233c.09-.072.17-.144.252-.216l.027-.027z"/>
  <path d="M45.892 8.963a3.243 3.243 0 0 0-.18.162l-.323.26-.108.081c-.35.27-.737.513-1.196.755-.188.1-.377.189-.575.279l-.099.045c-.207.09-.404.17-.611.234a8.774 8.774 0 0 1-1.367.36c-.458.08-.926.134-1.393.152a10.378 10.378 0 0 1-5.115-1.133c-.17.1-.342.19-.522.288 0 0 .01 0 .01.009 1.6.881 3.398 1.34 5.231 1.34.135 0 .28 0 .414-.01a9.876 9.876 0 0 0 2.895-.539c.224-.072.44-.162.647-.252l.045-.018h.009l.063-.027c.198-.09.413-.188.611-.296.477-.252.89-.513 1.259-.791l.117-.081s.009 0 .009-.01l.332-.269.198-.17zM24.632 7.515c.368.432.719.845 1.034 1.268.251.333.485.665.7 1.007.127.198.252.422.378.647.126-.099.261-.198.405-.297-.117-.215-.243-.422-.36-.62-.225-.35-.467-.701-.719-1.043a39.777 39.777 0 0 0-1.06-1.276c-.216-.252-.432-.504-.648-.773-.35-.432-.62-.8-.863-1.16a8.92 8.92 0 0 1-.71-1.313 8.485 8.485 0 0 1-.468-1.42c-.099-.422-.18-.863-.242-1.438L22.06.926c-.01-.117-.018-.243-.027-.36l-.018-.341-.495.027.018.35.027.369.018.17c.072.603.144 1.07.252 1.511.126.53.297 1.034.494 1.501.198.468.459.935.746 1.394.243.377.53.755.89 1.204.234.26.45.522.666.764z"/>
  <path d="M24.838 6.041c.207.252.423.503.63.746.368.432.746.872 1.088 1.322.27.36.52.728.755 1.087.117.19.233.387.35.603.135-.09.279-.171.423-.252a9.944 9.944 0 0 0-.36-.611 14.873 14.873 0 0 0-.782-1.124c-.35-.467-.737-.917-1.106-1.348-.206-.243-.422-.495-.62-.738a13.368 13.368 0 0 1-.791-1.06 8.44 8.44 0 0 1-.62-1.151 8.364 8.364 0 0 1-.414-1.24A9.421 9.421 0 0 1 23.175.98c-.009-.063-.009-.117-.018-.18a39.7 39.7 0 0 0-.027-.306L23.103 0l-.494.027.027.494.027.324c.009.054.009.117.018.18.063.548.135.97.225 1.357a8.057 8.057 0 0 0 1.097 2.544c.242.35.503.702.835 1.115z"/>
  <path d="M24.38 3.272c.279.665.692 1.295 1.321 2.068.19.234.396.467.603.719.377.44.764.899 1.132 1.384a16.155 16.155 0 0 1 1.187 1.816c.144-.08.288-.152.44-.224-.125-.234-.26-.459-.395-.675-.252-.404-.54-.818-.836-1.213-.378-.504-.773-.962-1.15-1.412-.207-.242-.405-.476-.603-.71-.602-.728-.989-1.33-1.25-1.942a6.116 6.116 0 0 1-.35-1.06A8.853 8.853 0 0 1 24.29.88c-.009-.063-.009-.117-.018-.18a2.726 2.726 0 0 1-.018-.26l-.009-.234-.494.018.009.233.027.28c.009.053.009.116.018.179.054.494.117.872.206 1.214.09.404.216.79.369 1.141zM33.397 1.645a4.329 4.329 0 0 1-.225.566 4.93 4.93 0 0 1-1.232 1.664 7.344 7.344 0 0 0 0 .629 5.214 5.214 0 0 0 1.681-2.077c.108-.216.19-.44.243-.611zM34.53 1.78a6.9 6.9 0 0 1-.342.89s0 .009-.01.009a2.612 2.612 0 0 1-.161.315 1.073 1.073 0 0 0-.072.143c-.027.045-.054.09-.08.144a4.267 4.267 0 0 1-.19.297l-.009.009c-.17.26-.386.521-.656.8l-.189.189c-.036.036-.08.072-.126.108-.027.018-.053.045-.071.063l-.1.08c-.017.018-.044.027-.062.045l-.252.19-.234.152c.018.18.036.36.072.53l.081-.045s.01 0 .01-.009l.08-.053.27-.171c.009 0 .009-.01.018-.01l.26-.188a.494.494 0 0 0 .081-.063l.108-.09c.027-.018.045-.036.072-.063a1.8 1.8 0 0 0 .144-.126l.198-.197c.287-.297.521-.585.71-.872.08-.108.144-.225.207-.333.027-.045.054-.09.08-.144 0-.009.01-.009.01-.018.026-.045.053-.099.071-.144.063-.108.126-.224.171-.35.153-.324.27-.657.369-.944zM35.51 2.355a6.383 6.383 0 0 1-.315.782v.01c-.054.134-.126.26-.198.395-.027.045-.054.099-.081.144-.027.045-.054.099-.09.144-.08.134-.153.251-.234.368 0 0 0 .01-.009.01-.206.314-.467.628-.782.952l-.225.225c-.053.045-.107.09-.161.144-.027.018-.054.045-.081.063l-.117.098c-.027.018-.054.045-.081.063l-.297.216-.314.198-.081.054-.198.117c-.027.009-.045.027-.072.036.036.161.072.323.126.494.063-.036.126-.063.18-.099l.215-.117s.01 0 .01-.009c.035-.018.062-.045.098-.063l.324-.206c.009 0 .009-.01.018-.01l.306-.224c.036-.027.063-.045.098-.081l.126-.108c.027-.018.054-.045.072-.063.063-.054.117-.099.18-.162l.234-.233c.341-.35.611-.684.836-1.025.099-.135.18-.27.26-.405.027-.045.054-.099.09-.144 0-.008.01-.008.01-.017.026-.045.053-.1.08-.144.072-.135.153-.279.216-.423.117-.243.216-.503.333-.836zM1.825 15.327l.297.135c.071.027.134.063.206.1l.306.16c.063.037.126.073.198.118.036.018.063.036.099.054l.143.09.135.09.09.062.189.135c.36.27.701.585 1.025.935.287.333.557.71.8 1.124.162.297.306.593.422.89.207.054.405.099.585.153a8.518 8.518 0 0 0-.585-1.286 7.23 7.23 0 0 0-.863-1.204 7.664 7.664 0 0 0-1.096-1.007 2.866 2.866 0 0 0-.207-.144l-.09-.063-.144-.099-.009-.009-.153-.09c-.036-.018-.063-.036-.099-.054-.071-.045-.143-.08-.224-.126l-.306-.152a1.758 1.758 0 0 0-.234-.108l-.305-.135a6.479 6.479 0 0 0-.378-.144c-.054-.018-.108-.036-.153-.054l-.17.468a1.2 1.2 0 0 1 .161.063c.126.009.252.053.36.098z"/>
  <path d="M1.564 16.433c.1.045.189.081.279.126.315.153.647.35.989.593.296.225.584.486.854.782.242.28.467.594.665.935.009.01.009.018.018.036.135.027.27.054.414.081.071.018.134.027.206.045-.063-.135-.135-.27-.206-.404a7.433 7.433 0 0 0-.729-1.025 6.25 6.25 0 0 0-.926-.845 7.365 7.365 0 0 0-1.06-.639c-.1-.053-.207-.098-.306-.143a.797.797 0 0 1-.153-.072H1.6c-.099-.045-.207-.081-.305-.117a1.2 1.2 0 0 1-.162-.063l-.171.458c.054.018.108.045.17.063.1.036.19.072.288.108.036.036.09.054.144.081zM1.348 17.557l.225.117c.045.018.081.045.126.072a.79.79 0 0 0 .09.054l.099.062.09.063.08.054.109.081c.242.18.458.387.683.62.009.01.009.019.018.019.117.009.242.026.368.035.1.01.207.027.315.045a5.47 5.47 0 0 0-.333-.431 4.921 4.921 0 0 0-.755-.692c-.045-.036-.09-.063-.135-.09l-.08-.054-.1-.072c-.008 0-.008-.009-.017-.009l-.108-.063c-.027-.018-.054-.027-.081-.045-.045-.027-.1-.054-.153-.09l-.216-.108c-.063-.036-.117-.054-.17-.08l-.234-.1-.198.45.234.099a.696.696 0 0 1 .143.063zM11.785 17.08c-.116.018-.224.027-.341.045-.423.63-.8 1.367-1.187 2.13l-.072.136c-.503.989-1.034 2.013-1.78 2.984a7.74 7.74 0 0 1-1.312 1.34 6.876 6.876 0 0 1-1.645.97 8.33 8.33 0 0 1-1.825.495l-.468.054c-.027 0-.054.009-.09.009-.044.009-.09.009-.134.009l-.369.018c-.108.009-.216.009-.324.009l-.719-.018-.26-.018-.036.494.27.018h.017l.737.018H2.265c.117 0 .225-.009.342-.009l.369-.018c.054 0 .116-.009.17-.018.027 0 .054-.009.081-.009l.477-.053h.009a8.676 8.676 0 0 0 1.933-.53 7.27 7.27 0 0 0 1.77-1.044 8.709 8.709 0 0 0 1.394-1.42c.782-.998 1.321-2.05 1.834-3.066l.072-.134c.467-.908.908-1.771 1.43-2.455a7.707 7.707 0 0 1-.36.063z"/>
  <path d="m10.086 17.206-.08.135c-.261.459-.504.935-.738 1.393l-.054.108c-.467.917-.997 1.96-1.69 2.841a7.31 7.31 0 0 1-1.132 1.16c-.44.35-.9.62-1.385.818-.467.189-.98.332-1.555.422l-.404.045c-.027 0-.054.01-.081.01-.036.008-.081.008-.117.008l-.62.027-.657-.018-.728-.063-.036.495.737.063h.018l.665.018H2.247l.63-.027c.054 0 .099-.01.153-.018.026 0 .044-.01.071-.01l.414-.044h.009a7.954 7.954 0 0 0 1.672-.45 6.291 6.291 0 0 0 1.501-.89 7.236 7.236 0 0 0 1.214-1.24c.72-.926 1.267-1.987 1.744-2.922l.054-.108c.234-.458.467-.926.728-1.375.08-.135.153-.27.234-.396a13.08 13.08 0 0 1-.585.018z"/>
  <path d="M9.008 17.161c-.054-.009-.108-.009-.162-.018-.198.36-.378.72-.558 1.061l-.062.126c-.513 1.016-.99 1.924-1.574 2.66-.602.774-1.276 1.313-2.058 1.628a6.3 6.3 0 0 1-1.295.35l-.35.037c-.027 0-.045.009-.072.009-.036 0-.063.009-.1.009l-.548.018-.584-.018-.665-.054-.036.494.674.054h.018l.602.018H2.256l.558-.018c.045 0 .09-.009.135-.009.018 0 .036-.009.063-.009l.36-.036h.008c.53-.09.989-.207 1.411-.378.855-.35 1.61-.952 2.266-1.78.611-.773 1.097-1.699 1.627-2.741l.063-.126c.207-.405.422-.827.656-1.24a7.171 7.171 0 0 0-.395-.037zM8.45 10.913c.369.45.684.872.944 1.313.288.467.504.926.665 1.393.171 0 .342-.009.513-.018a7.758 7.758 0 0 0-.755-1.627 11.621 11.621 0 0 0-.99-1.375A12.882 12.882 0 0 0 6.384 8.35c-.252-.17-.495-.332-.746-.476l-.252.431c.234.135.476.288.71.459a11.63 11.63 0 0 1 2.355 2.148zM7.596 11.633c.333.404.612.782.845 1.168.144.243.27.477.378.72.18.035.35.053.53.071h.045a7.138 7.138 0 0 0-.521-1.051 9.37 9.37 0 0 0-.89-1.232 11.98 11.98 0 0 0-2.22-2.05 11.325 11.325 0 0 0-.864-.539l-.233.431c.27.144.548.324.818.513a11.836 11.836 0 0 1 2.112 1.969zM6.742 12.343c.198.234.369.467.53.692l.055.027c.054.027.116.054.161.072l.342.126c.072.027.135.045.207.063-.036-.072-.081-.135-.117-.207a8.137 8.137 0 0 0-.791-1.097 11.172 11.172 0 0 0-2.005-1.852c-.252-.18-.512-.332-.755-.476l-.243.431c.234.126.477.28.71.45a10.79 10.79 0 0 1 1.906 1.77zM36.795 3.497l-.045.126c-.063.189-.126.36-.198.521 0 0 0 .01-.009.01a5.916 5.916 0 0 1-.863 1.42c-.342.413-.764.8-1.25 1.16-.943.7-2.067 1.23-3.335 1.806l-.153.072c-.566.26-1.15.53-1.735.827a15.27 15.27 0 0 0-1.932 1.142 8.845 8.845 0 0 0-1.6 1.438l.026.081c.054.153.117.306.162.459.01-.01.018-.018.027-.036a8.298 8.298 0 0 1 1.663-1.538c.53-.377 1.124-.728 1.87-1.105.576-.297 1.16-.558 1.717-.818l.162-.072c1.295-.585 2.445-1.133 3.425-1.861.513-.378.962-.8 1.33-1.24.37-.432.675-.936.936-1.529.09-.189.161-.387.224-.575l.045-.117z"/>
  <path d="M37.891 3.74c-.026.072-.044.144-.071.206-.072.225-.153.441-.243.639v.009a7.05 7.05 0 0 1-1.025 1.68c-.405.486-.89.936-1.447 1.35-1.124.817-2.41 1.41-3.542 1.932l-.243.108c-1.15.53-2.337 1.07-3.398 1.825a7.395 7.395 0 0 0-1.546 1.43 4.683 4.683 0 0 0-.27.359c.063.216.117.422.17.638.145-.243.306-.476.486-.692a7.17 7.17 0 0 1 1.448-1.34c1.024-.728 2.184-1.258 3.317-1.78l.243-.107c1.16-.53 2.472-1.133 3.622-1.978a8.332 8.332 0 0 0 1.529-1.43c.431-.503.8-1.105 1.096-1.789.108-.224.19-.458.27-.692.027-.072.045-.135.072-.206z"/>
  <path d="M38.97 4.018c-.027.09-.063.171-.09.261-.09.27-.18.521-.296.773a8.01 8.01 0 0 1-1.187 1.942 9.3 9.3 0 0 1-1.645 1.537A14.76 14.76 0 0 1 33.9 9.673a36.69 36.69 0 0 1-1.807.872l-.198.09c-1.213.557-2.364 1.079-3.335 1.77-.521.37-.97.783-1.33 1.223a6.74 6.74 0 0 0-.764 1.214c.063.333.116.62.152.935.333-.881.594-1.349.99-1.834a6.028 6.028 0 0 1 1.23-1.133c.945-.683 2.077-1.195 3.273-1.744l.198-.09c.593-.27 1.214-.557 1.825-.88a14.732 14.732 0 0 0 1.915-1.178A9.304 9.304 0 0 0 37.775 7.3a8.458 8.458 0 0 0 1.258-2.05c.126-.27.225-.548.315-.818.027-.09.054-.17.09-.26zM47.052 17.476c.08.054.153.099.234.144.063.036.117.072.17.108l.1.054.197-.054c.324-.081.63-.153.917-.207.243-.045.459-.081.656-.099l-.054-.494c-.215.027-.44.053-.692.107-.296.054-.62.126-.953.216-.206.054-.422.117-.638.18zM43.474 19.067a15.28 15.28 0 0 1-.144-.17c-.099.053-.207.107-.305.161-.513.279-.935.54-1.286.8.144.081.288.153.423.234.018.009.036.018.063.036.296-.198.638-.405 1.033-.63.135-.071.27-.143.414-.215zM42.746 18.123l-.054-.08c-.009-.019-.018-.037-.036-.046-.054.027-.108.063-.162.09-.503.279-1.168.656-1.77 1.15a.391.391 0 0 1-.064.055c.162.08.324.17.477.252.54-.432 1.132-.774 1.59-1.025.073-.036.136-.072.208-.108zM46.063 16.577c.027.027.045.063.063.072l.279.297.018.018.08-.027c.324-.108.657-.198.98-.288.351-.09.675-.162.99-.225.35-.063.665-.108.952-.135l-.036-.494c-.305.027-.629.072-1.007.135a12.67 12.67 0 0 0-1.024.233c-.333.09-.675.18-1.007.288-.1.036-.198.063-.297.099 0 .018 0 .018.01.027zM45.46 15.687l.18.315c0 .009.01.018.028.036.161-.054.332-.108.494-.162.35-.108.692-.216 1.034-.297.377-.099.728-.18 1.07-.243.314-.054.584-.098.854-.125l-.054-.495a9.36 9.36 0 0 0-.89.135c-.36.063-.72.144-1.106.252-.35.09-.71.197-1.06.305-.199.063-.387.126-.585.198zM42.233 17.251l-.107-.234v-.009c-.054.027-.108.063-.162.09-.585.324-1.277.729-1.951 1.277-.135.117-.279.243-.422.377.161.072.314.144.476.225.08-.072.17-.153.26-.225.639-.52 1.277-.899 1.87-1.222.054-.027.1-.054.153-.081zM16.316 2.427c.01.027.018.054.027.072l.108.26c.27.693.44 1.44.504 2.23.17.01.341.018.494.018v-.054a8.294 8.294 0 0 0-.53-2.373l-.108-.27c-.01-.027-.018-.045-.027-.072a1.463 1.463 0 0 0-.1-.206l-.09-.171-.44.225.09.17c.027.054.045.108.072.171zM16.775 11.318c.072-.54.162-1.079.26-1.654.063-.36.126-.72.18-1.088-.162 0-.323-.009-.494-.018-.054.342-.117.683-.171 1.025-.099.575-.198 1.124-.27 1.672-.206 1.501-.188 2.697.045 3.767.198.953.62 1.879 1.24 2.769l.154-.01c.108-.008.215 0 .314 0H18.187c-.702-.925-1.16-1.887-1.367-2.876-.225-.998-.243-2.14-.045-3.587zM15.238 2.733c.017.036.035.08.062.135a.438.438 0 0 0 .027.063l.09.224c.207.522.342 1.097.405 1.69l.252.045.134.018c.036.01.081.01.117.018a7.334 7.334 0 0 0-.45-1.96l-.098-.233a.438.438 0 0 1-.027-.063c-.027-.054-.045-.117-.081-.189l-.135-.27-.44.225z"/>
  <path d="M15.525 13.179c0-.602.045-1.259.144-2.005.08-.575.18-1.16.279-1.717.054-.306.108-.62.161-.944l-.413-.054-.08-.009c-.055.306-.1.62-.154.917a49.96 49.96 0 0 0-.278 1.735 14.653 14.653 0 0 0-.153 2.068c0 .728.072 1.43.215 2.076.19.908.567 1.816 1.097 2.68l.108-.028.027-.009c.099-.018.198-.027.297-.044l.099-.018a8.18 8.18 0 0 1-1.142-2.697 8.894 8.894 0 0 1-.207-1.951z"/>
  <path d="M15.588 17.871c-.063-.116-.135-.224-.18-.341 0 0 0-.01-.009-.01a8.584 8.584 0 0 1-.755-2.12 10.297 10.297 0 0 1-.234-2.212c0-.656.054-1.358.162-2.158.081-.611.189-1.213.288-1.789.054-.305.099-.602.153-.899l-.108-.018c-.126-.027-.252-.062-.378-.09-.045.306-.099.612-.153.926-.098.585-.206 1.187-.287 1.807a16.875 16.875 0 0 0-.162 2.22c0 .81.08 1.592.243 2.32.18.81.45 1.555.79 2.23.064.134.136.26.208.377.018.036.045.072.063.117.152-.054.314-.099.485-.144l-.045-.072c-.027-.045-.054-.099-.08-.144zM14.23 3.218c.019.027.028.063.046.1.009.017.018.044.027.062l.08.189c.117.297.207.611.27.944l.081.036c.081.027.162.054.252.09.063.018.126.045.189.063a6.253 6.253 0 0 0-.342-1.313l-.08-.198c-.01-.018-.019-.036-.019-.054-.018-.045-.045-.098-.072-.161l-.189-.36-.44.225.189.368c.009 0 .009 0 .009.01zM20.254 1.816c.153 1.115.44 2.211.854 3.263.198.522.44 1.025.692 1.51l.396-.314c-.225-.45-.441-.908-.62-1.376a13.057 13.057 0 0 1-.828-3.155 6.486 6.486 0 0 1-.072-.602L20.65.836l-.494.054.027.297c.018.206.036.422.072.629zM19.148 1.969c.162 1.204.476 2.391.926 3.515.243.629.53 1.231.836 1.816.135-.108.26-.216.396-.315-.28-.54-.54-1.097-.774-1.681a14.76 14.76 0 0 1-.899-3.407c-.036-.216-.053-.432-.08-.656a3.745 3.745 0 0 0-.036-.315l-.495.054c.01.099.018.207.027.306.045.224.063.458.099.683zM18.051 2.122c.18 1.294.513 2.562.99 3.766.296.755.646 1.475 1.006 2.149.126-.117.252-.225.378-.342a18.484 18.484 0 0 1-.926-1.996 15.573 15.573 0 0 1-.962-3.658 9.254 9.254 0 0 1-.081-.72l-.018-.152-.495.045.018.152c.027.261.045.513.09.756zM25.513 3.47c.009.009.018.027.027.036.099-.27.17-.54.224-.818a.509.509 0 0 0 .027-.162c0-.018.01-.036.01-.054l.062-.395v-.018l.018-.207c0-.054.01-.108.01-.162.008-.08.008-.17.017-.252V.782l-.045-.674-.494.036.045.665v.611c0 .081-.01.153-.018.234 0 .054-.01.108-.01.162l-.017.207-.054.386c0 .018-.01.045-.01.063-.008.036-.008.072-.017.099 0 .009 0 .018-.009.018-.018.09-.036.18-.063.27.09.215.189.413.297.611zM18.393 12.343c.126-.504.306-.998.54-1.439a7.99 7.99 0 0 1 1.23-1.69c.486-.503.99-.935 1.466-1.312l.558-.45c.305-.242.593-.467.872-.71.08-.063.152-.126.224-.189a9.06 9.06 0 0 1-.296-.395c-.081.072-.162.135-.243.207-.279.233-.566.458-.863.7-.189.145-.378.298-.566.45-.486.396-1.007.836-1.51 1.358a7.97 7.97 0 0 0-1.313 1.798 7.114 7.114 0 0 0-.603 1.636c.171.018.333.027.504.036zM26.295 4.594c.26-.54.45-1.106.557-1.681.018-.063.027-.126.036-.18 0-.018.01-.045.01-.063l.071-.459v-.018l.018-.233c0-.054.009-.108.009-.162.009-.099.018-.207.018-.306V.755l-.027-.422-.494.036.027.422v.692c0 .1-.01.19-.018.288 0 .054-.01.108-.01.162l-.017.225-.063.449c0 .027-.01.045-.01.072-.008.045-.008.09-.026.135v.018c-.09.45-.225.899-.414 1.33.09.126.207.27.333.432z"/>
  <path d="m19.346 12.514.126.027h.009c.099-.396.242-.765.431-1.115.252-.486.611-.971 1.052-1.438.584-.603 1.258-1.133 1.915-1.646.296-.233.602-.485.908-.728.072-.063.144-.117.206-.18-.107-.125-.206-.251-.314-.377l-.207.18c-.288.242-.593.485-.89.719-.665.53-1.348 1.07-1.95 1.699-.477.503-.864 1.025-1.133 1.546-.207.387-.36.8-.477 1.232.099.027.216.054.324.08zM27.005 5.448c.018.027.036.045.063.072.054-.1.108-.198.153-.288a7.818 7.818 0 0 0 .719-2.095c.018-.072.027-.143.036-.206 0-.027.009-.045.009-.072l.08-.522V2.32l.019-.26c0-.054.009-.108.009-.162l.027-.369V.71l-.018-.27-.495.036.018.261v.773c-.009.117-.009.234-.018.342 0 .054-.009.108-.009.162l-.018.251-.072.513c0 .027-.009.054-.009.08l-.027.163v.018a7.533 7.533 0 0 1-.683 1.968l-.054.108c.081.108.18.216.27.333zM20.326 12.81l.215.081c.081-.341.198-.656.36-.953.207-.395.494-.79.872-1.186.503-.53 1.124-1.025 1.78-1.547.306-.242.62-.494.935-.755.072-.063.144-.126.216-.18-.1-.125-.207-.251-.315-.377-.072.063-.144.117-.216.18-.305.26-.62.503-.926.746-.674.53-1.303 1.043-1.834 1.591-.413.432-.728.854-.952 1.295a5.193 5.193 0 0 0-.387 1.006c.09.036.17.063.252.1zM6.778 19.94a33.114 33.114 0 0 0-1.807-.46 17.16 17.16 0 0 0-2.013-.341 10.735 10.735 0 0 0-2.149-.009 12.18 12.18 0 0 0-.737.108l.09.485c.243-.045.476-.08.692-.099a10.42 10.42 0 0 1 2.05.01c.593.053 1.213.161 1.96.332.584.135 1.15.288 1.698.432l.045-.063c.054-.072.108-.162.162-.252a.82.82 0 0 0 .072-.117zM13.43 19.912l.072-.036a31.407 31.407 0 0 1 1.727-.683c.755-.26 1.393-.405 2.022-.468l.558-.026a6.106 6.106 0 0 1 1.618.198c.88.233 1.456.602 2.103 1.204.072.063.135.135.207.198-.054-.297-.117-.567-.18-.836a4.774 4.774 0 0 0-2.004-1.061 6.893 6.893 0 0 0-1.17-.198c-.17-.018-.34-.018-.547-.018h-.045l-.567.027h-.009c-.665.063-1.348.225-2.14.495-.62.215-1.204.458-1.761.692l-.072.036c-.504.215-1.097.458-1.654.638a9.2 9.2 0 0 1-.854.243 7.364 7.364 0 0 1-.198.368c-.036.063-.072.126-.099.189.378-.063.791-.17 1.304-.333a13.407 13.407 0 0 0 1.69-.629zM4.72 20.56c-1.484-.333-2.688-.441-3.812-.324A9.42 9.42 0 0 0 0 20.38l.108.485c.306-.063.584-.108.854-.135 1.06-.108 2.22-.009 3.65.315.386.09.773.189 1.16.288.134-.126.26-.261.386-.414a37.343 37.343 0 0 0-1.438-.36z"/>
  <path d="M21.917 21.503v-.036c-.72-1.06-1.528-1.663-2.643-1.96a5.633 5.633 0 0 0-1.95-.152c-.576.054-1.179.198-1.88.44a25.38 25.38 0 0 0-1.69.666c-.584.242-1.195.503-1.807.7-.71.234-1.258.36-1.77.405h-.019c-.027.01-.054.01-.09.01-.045.071-.09.152-.134.224l-.01.018-.107.162c-.018.036-.045.072-.063.099l.243-.01c.071 0 .152-.008.233-.017.558-.054 1.133-.18 1.88-.423a23.75 23.75 0 0 0 1.842-.719c.54-.225 1.097-.458 1.663-.656.665-.225 1.232-.36 1.771-.414a5.313 5.313 0 0 1 1.78.135c.89.234 1.996.827 2.805 2.436.027.045.045.1.063.144-.045-.36-.081-.72-.117-1.052zM1.025 21.341a6.9 6.9 0 0 0-.863.144l.108.486c.296-.063.557-.108.8-.135.935-.099 1.986 0 3.29.297.063.018.126.027.18.045.18-.081.35-.171.512-.28.036-.026.081-.053.117-.08-.234-.063-.467-.117-.701-.17-1.349-.315-2.445-.405-3.443-.307z"/>
  <path d="M17.836 20.443H17.8c-.126.009-.243.009-.369.018h-.018c-.485.044-1.016.17-1.627.377-.513.17-1.034.396-1.582.62-.612.261-1.25.522-1.933.755-.27.09-.575.18-.971.28l-.512.107-.54.072c-.072.009-.144.018-.234.018l-.287.009h-.1c-.053 0-.107.009-.16 0h-.172l-.17.225c-.063.08-.126.161-.198.242.072.01.144.01.216.018.071.01.143.01.215.01h.387l.296-.01c.09 0 .19-.009.28-.027l.539-.072h.018l.52-.107h.01c.413-.1.737-.198 1.016-.288.7-.234 1.34-.503 1.968-.764.54-.225 1.052-.44 1.547-.611.575-.198 1.06-.315 1.51-.36.117-.01.243-.01.36-.018 2.094-.009 3.604 1.546 3.604 4.405v5.133h.495v-5.133c.009-3.138-1.672-4.9-4.072-4.9zM4.216 12.154c.081.072.171.153.252.216l.467.368.01.01.287.197c.189.144.396.27.584.387l.216.135s.01 0 .01.009c.583.323 1.159.575 1.716.746a7.01 7.01 0 0 0 1.825.323 8.62 8.62 0 0 0 1.888-.108c.692-.107 1.366-.27 1.942-.413l.098-.027-.026-.503c-.063.017-.135.035-.198.053-.558.144-1.223.306-1.888.405-.647.099-1.232.135-1.789.099a6.816 6.816 0 0 1-1.7-.306 8.624 8.624 0 0 1-1.617-.71l-.216-.135c-.189-.117-.378-.225-.557-.36l-.288-.197-.467-.369a2.087 2.087 0 0 1-.225-.189c-.036-.035-.072-.062-.108-.098l-.117-.1-.324.37.117.107c.045.027.072.054.108.09zM17.683 13.242h.243l.368.027c.054 0 .117.009.189.018.036.009.072.009.099.018.036.009.072.009.108.018l.188.027.459.108.135.036c.108.035.188.053.27.08.09.027.18.063.269.1.387.143.746.314 1.07.512.35.206.683.467.97.755.351.341.72.845 1.043 1.402-.035-.287-.08-.575-.134-.854-.018-.108-.045-.216-.072-.332a5.524 5.524 0 0 0-1.564-1.402 7.16 7.16 0 0 0-1.151-.55c-.1-.035-.198-.071-.288-.098-.09-.027-.18-.054-.288-.09l-.143-.045h-.01l-.467-.108a2.314 2.314 0 0 0-.225-.036c-.035-.009-.062-.009-.107-.018-.036 0-.063-.009-.1-.018-.071-.009-.152-.027-.224-.027l-.36-.027c-.036 0-.08-.009-.116-.009h-.163c-.197 0-.395.01-.593.018-.009.171-.009.342-.009.495.198.009.396 0 .603 0z"/>
  <path d="M3.497 13c.09.08.18.16.279.233l.512.404.01.01.314.215c.215.162.45.306.674.44l.216.135s.009 0 .009.01c.656.368 1.303.647 1.941.844a8.271 8.271 0 0 0 2.095.378c.665.036 1.357 0 2.113-.117.674-.099 1.348-.26 2.004-.422-.027-.162-.054-.324-.072-.495-.656.171-1.33.324-2.004.432-.72.108-1.376.144-2.014.108a8.157 8.157 0 0 1-1.969-.351 10.13 10.13 0 0 1-1.843-.8l-.215-.135a7.758 7.758 0 0 1-.639-.413l-.314-.216-.504-.396c-.08-.063-.162-.135-.251-.207a.619.619 0 0 0-.117-.098l-.369-.324-.323.369.377.323a.433.433 0 0 1 .09.072zM23.22 18.654l-.009-.459c-.287-1.079-.89-2.175-1.582-2.823-.503-.476-1.124-.845-1.834-1.114-.08-.036-.17-.063-.251-.09a2.312 2.312 0 0 0-.261-.081l-.126-.036h-.018l-.378-.09a1.396 1.396 0 0 0-.188-.036c-.027 0-.054-.009-.081-.009h-.01c-.026 0-.053-.009-.08-.009-.063-.009-.126-.018-.189-.018l-.306-.018c-.036 0-.062-.009-.098-.009h-.126c-.19 0-.387.01-.585.027.018.162.036.333.063.494.18-.009.35-.017.513-.017h.242l.261.017c.045 0 .09.01.144.018.027.01.063.01.09.018a.306.306 0 0 0 .09.01c.054.008.099.008.144.026l.368.09.117.036c.099.027.17.054.234.072h.009l.233.081c.666.234 1.232.566 1.682.998.988.935 1.546 2.544 1.932 4.1v-1.178z"/>
  <path d="M11.732 16.145c-.783.117-1.538.162-2.239.126a9.525 9.525 0 0 1-2.238-.404 10.764 10.764 0 0 1-2.068-.9c-.072-.044-.135-.08-.207-.125-.242-.153-.494-.306-.728-.476l-.341-.243-.549-.432c-.09-.072-.18-.144-.27-.224a1.139 1.139 0 0 0-.116-.1l-.216-.188-.324.368.225.198c.036.036.08.063.117.1.099.08.189.17.296.25l.54.423.009.01.341.242c.243.18.504.342.765.494.071.045.143.081.206.126 0 0 .01 0 .01.01.718.404 1.447.727 2.166.943a9.529 9.529 0 0 0 2.364.423c.728.036 1.52 0 2.337-.126.729-.108 1.42-.27 2.086-.44-.045-.162-.09-.315-.126-.477-.656.162-1.34.315-2.04.422zM22.483 19.382a.662.662 0 0 0-.036-.126c-.027-.108-.054-.225-.09-.333l-.063-.224v-.01l-.072-.215a11.7 11.7 0 0 0-.161-.45l-.054-.135a.18.18 0 0 0-.036-.071c-.036-.081-.072-.153-.1-.216-.269-.567-.61-1.052-1.006-1.42-.396-.378-.881-.666-1.465-.882-.072-.027-.144-.054-.207-.071h-.009c-.08-.027-.162-.054-.225-.072l-.108-.036h-.018l-.287-.063c-.054-.01-.108-.018-.153-.027-.018 0-.045-.01-.063-.01h-.009c-.018 0-.045-.008-.063-.008a.792.792 0 0 0-.153-.018l-.243-.018h-.197c-.126 0-.261 0-.396.009.045.17.09.332.144.485.09 0 .17-.009.26-.009h.189l.216.01c.027 0 .063.008.1.008.026 0 .053.01.08.01.027 0 .054.008.08.008.037 0 .073.01.1.018l.287.063.1.027c.053.018.125.036.206.063h.01c.062.018.125.045.188.063.53.198.953.45 1.303.782.351.333.648.755.9 1.286.026.053.053.107.08.18.01.026.027.053.036.08.018.036.036.081.045.117.018.045.036.099.054.144.036.09.072.18.099.279l.072.215.063.225c.027.099.054.207.08.315.01.045.019.09.037.126.135.566.242 1.177.332 1.878.135 1.151.207 2.41.207 3.965v5.124h.495v-5.125c0-1.572-.072-2.849-.207-4.026-.09-.702-.198-1.33-.342-1.915z"/>
  <path d="M24.128 17.638v-.01l-.036-.638a14.027 14.027 0 0 0-.224-1.672l-.036-.206-.027-.135-.018-.072c-.01-.045-.027-.099-.036-.144a2.745 2.745 0 0 0-.063-.26l-.108-.396-.081-.27c-.018-.045-.027-.09-.045-.144a14.695 14.695 0 0 0-.62-1.573c-.189-.404-.387-.8-.603-1.196-.134.135-.251.261-.36.378.18.342.351.683.504 1.025.225.485.423.98.594 1.52.018.053.027.098.045.143.027.08.054.162.071.243l.108.395c.018.081.036.162.063.243.01.054.027.099.036.153l.018.072c.01.036.018.08.027.117l.036.206c.108.549.171 1.106.216 1.618l.036.62.009.63v12.19h.494V18.276z"/>
  <path d="m24.964 15.112-.045-.225a.94.94 0 0 0-.036-.153l-.018-.08c-.009-.046-.018-.1-.036-.145-.017-.099-.044-.188-.071-.296l-.117-.432c-.027-.099-.054-.198-.09-.287a.76.76 0 0 1-.045-.153 16.957 16.957 0 0 0-.665-1.69 28.979 28.979 0 0 0-.756-1.493 7.71 7.71 0 0 0-.278.243c-.036.027-.072.063-.1.09.244.45.486.908.693 1.375.243.513.459 1.07.638 1.636.018.054.036.108.054.153l.081.27.117.432c.027.09.045.18.063.278.009.054.027.108.036.153l.018.08.027.136.045.225c.117.575.189 1.195.234 1.717.036.548.054 1.123.054 1.77v11.75h.494V18.717c0-.657-.018-1.25-.054-1.816-.054-.53-.117-1.17-.243-1.79z"/>
  <path d="m26.367 18.267-.01-.71v-.01l-.044-.718c-.054-.576-.117-1.25-.26-1.924l-.046-.243c-.009-.054-.027-.108-.036-.162l-.018-.08c-.009-.054-.027-.1-.036-.153-.027-.108-.045-.216-.08-.324l-.127-.467a3.218 3.218 0 0 0-.098-.315l-.054-.162c-.207-.63-.45-1.24-.71-1.816a24.145 24.145 0 0 0-.89-1.735c-.054.045-.108.081-.153.126-.081.063-.162.126-.234.189.288.53.575 1.07.836 1.636a18.246 18.246 0 0 1 .746 1.915c.036.099.063.197.09.287l.126.459c.027.099.054.207.072.306l.027.161.027.081c.009.054.027.1.036.144l.045.243c.125.656.197 1.312.242 1.86l.045.71.018.711v12.199h.495V18.564c0-.1 0-.198-.01-.297z"/>
  <path d="M31.32 6.814c.08.342.18.674.288 1.007.153-.072.305-.144.45-.216-.09-.305-.18-.611-.253-.908a10.29 10.29 0 0 1-.27-1.618 11.808 11.808 0 0 1 .235-3.317c.035-.207.09-.414.134-.611l-.485-.117c-.045.198-.099.413-.135.63-.243 1.213-.324 2.381-.234 3.451.036.548.126 1.106.27 1.7zM30.241 7.084c.1.413.225.818.35 1.213.109-.044.208-.098.316-.143l.017-.01c.045-.017.081-.035.126-.053a15.991 15.991 0 0 1-.314-1.124 11.24 11.24 0 0 1-.297-1.789c-.09-1.133-.009-2.355.243-3.632.045-.251.108-.503.162-.746l.054-.207-.486-.117-.045.207c-.063.252-.117.504-.17.764-.27 1.322-.351 2.58-.252 3.767.036.602.134 1.214.296 1.87zM29.657 16.316l.431-.458c.225-.243.432-.486.62-.728.216-.288.387-.558.522-.81a5.34 5.34 0 0 0 .584-1.842c.036-.261.054-.54.045-.818-.17.08-.341.152-.494.233a5.115 5.115 0 0 1-.575 2.202 6.48 6.48 0 0 1-.486.747c-.18.225-.377.458-.593.692l-.432.459c-.278.296-.575.593-.836.917a8.684 8.684 0 0 0-1.654 3.02v1.43c.45-1.646 1.034-2.958 2.032-4.127.279-.332.557-.63.836-.917zM29.163 7.345c.116.494.26.97.413 1.429.153-.072.297-.144.45-.216-.135-.431-.27-.872-.378-1.33a12.462 12.462 0 0 1-.324-1.969 14.167 14.167 0 0 1 .261-3.938c.045-.242.099-.485.162-.728L29.27.476c-.063.252-.116.495-.161.747-.288 1.42-.378 2.786-.27 4.072.036.656.153 1.348.324 2.05z"/>
  <path d="M29.297 15.094c.207-.216.387-.423.558-.648.18-.242.314-.45.431-.665.108-.216.216-.45.288-.701.072-.207.126-.45.17-.764.01-.045.01-.081.019-.126-.19.09-.369.189-.54.279-.036.18-.072.323-.117.458v.01a3.776 3.776 0 0 1-.251.61c-.1.18-.225.369-.387.585-.162.207-.332.404-.521.611-.135.144-.27.288-.414.432-.953.997-1.528 1.824-1.744 2.4.01.216.01.719.018.97.477-1.123.9-1.78 2.077-3.01.144-.154.287-.297.413-.441zM32.983 11.453c-.009-.099-.009-.207-.018-.306-.162.072-.323.153-.476.225 0 .036.009.072.009.099.009.368-.01.737-.054 1.079a7.075 7.075 0 0 1-.234 1.051c-.09.306-.225.63-.414.998a6.311 6.311 0 0 1-.584.9c-.198.25-.422.512-.656.763l-.45.477c-.278.296-.548.575-.79.863-.405.476-.729.926-.972 1.375-.26.468-.485.99-.674 1.546a12.185 12.185 0 0 0-.404 1.681 21.53 21.53 0 0 0-.27 3.551v4.702h.494v-4.702c0-1.276.081-2.418.261-3.47.108-.629.243-1.15.387-1.618.17-.53.386-1.016.629-1.456.234-.423.53-.845.917-1.295.234-.278.494-.548.773-.836.144-.152.297-.314.458-.476.252-.27.477-.54.684-.8.251-.342.458-.656.629-.971.207-.405.36-.755.45-1.088.107-.332.188-.692.251-1.132.045-.36.063-.756.054-1.16z"/>
  <path d="M32.821 18.402c.126-.018.261-.027.378-.036.063 0 .117-.01.18-.01.117-.008.224-.017.332-.017l.261-.01h.252c.054 0 .108 0 .162.01a10.693 10.693 0 0 1 2.382.36c.611.161 1.222.377 1.888.665 1.06.45 2.05.989 3.002 1.51.144.08.288.153.432.234 1.105.602 2.193 1.168 3.28 1.564 1.17.431 2.302.62 3.372.575.054 0 .108-.009.162-.009.09-.009.18-.009.279-.018l.27-.036-.064-.494-.26.036a2.21 2.21 0 0 1-.252.018c-.054 0-.117.009-.162.009-.989.045-2.059-.144-3.164-.549-1.061-.386-2.122-.943-3.219-1.537-.143-.08-.287-.153-.431-.233-.971-.522-1.969-1.07-3.048-1.529a14.301 14.301 0 0 0-1.96-.692 10.914 10.914 0 0 0-2.12-.36c-.127-.008-.253-.008-.378-.017-.054 0-.108 0-.162-.01h-.279l-.26.01c-.118 0-.243.009-.36.017-.054 0-.117.01-.18.01-.135.008-.26.026-.396.035l-.134.018c-1.52.198-2.598.702-3.3 1.196l-.054.09a4.351 4.351 0 0 0-.188.333l-.018.027c-.054.09-.1.188-.153.296-.027.045-.045.1-.072.144-.018.036-.027.072-.045.108.908-.818 2.086-1.474 3.883-1.708z"/>
  <path d="M32.84 19.517a10.371 10.371 0 0 1 1.833-.063c1.106.072 2.266.377 3.551.926 1.007.431 1.987.961 2.94 1.483l.395.216c1.187.647 2.266 1.213 3.434 1.636.639.233 1.259.404 1.852.503a8.785 8.785 0 0 0 1.933.135c.054 0 .117-.009.17-.009.109-.009.217-.009.333-.027l.495-.063-.063-.494-.486.063a39.7 39.7 0 0 1-.305.027c-.063 0-.117.009-.171.009a8.354 8.354 0 0 1-1.825-.126c-.566-.1-1.16-.261-1.77-.486-1.134-.413-2.194-.97-3.363-1.609l-.396-.216c-.961-.521-1.95-1.07-2.984-1.5-1.34-.576-2.553-.89-3.713-.963a10.542 10.542 0 0 0-1.924.063c-2.166.288-3.488 1.178-4.396 2.373-.08.324-.152.657-.215 1.016l-.027.189v.009c.88-1.61 2.337-2.778 4.701-3.092z"/>
  <path d="M49.335 24.937c-.117.01-.242.018-.368.027-.063 0-.126.01-.18.01a9.459 9.459 0 0 1-2.068-.145 10.88 10.88 0 0 1-1.96-.539c-1.294-.476-2.472-1.115-3.514-1.672l-.36-.198c-1.007-.548-1.95-1.06-2.922-1.483-1.222-.521-2.31-.81-3.344-.872-.08-.009-.17-.009-.251-.009-.054 0-.108 0-.153-.009h-.432a2.9 2.9 0 0 0-.278.018c-.054 0-.1.009-.162.009l-.27.027c-.045.009-.099.009-.153.018a7.615 7.615 0 0 0-1.618.404c-2.059.827-3.191 2.571-3.191 4.693v5.241h.494v-5.241c-.009-1.888.935-3.443 2.877-4.225.458-.18.962-.306 1.492-.378.054-.009.099-.009.153-.018l.252-.027c.054 0 .108-.009.161-.009.09-.009.171-.009.252-.009h.405c.054 0 .108 0 .17.01.081 0 .162 0 .234.008.98.063 2.014.342 3.183.836.953.405 1.887.917 2.885 1.457l.36.198c1.052.575 2.247 1.213 3.578 1.699.701.251 1.384.44 2.04.557.729.126 1.457.18 2.176.153.063 0 .117-.01.18-.01l.395-.026.342-.045-.063-.495z"/>
</svg>
